<svg width="119" height="30" viewBox="0 0 119 30" fill="none" xmlns="http://www.w3.org/2000/svg">
<path d="M5.08691 27.5518C5.08691 27.1221 5.16504 26.6875 5.32129 26.248C5.4873 25.8086 5.71191 25.3594 5.99512 24.9004C6.27832 24.4414 6.60547 23.9629 6.97656 23.4648C7.35742 22.9766 7.76758 22.4688 8.20703 21.9414V19.1729C7.97266 19.6318 7.70898 20.0371 7.41602 20.3887C7.12305 20.7402 6.81055 21.0381 6.47852 21.2822C6.15625 21.5166 5.81934 21.6973 5.46777 21.8242C5.12598 21.9414 4.78906 22 4.45703 22C3.99805 22 3.55371 21.8877 3.12402 21.6631C2.7041 21.4385 2.32812 21.1016 1.99609 20.6523C1.66406 20.1934 1.40039 19.6172 1.20508 18.9238C1.00977 18.2305 0.912109 17.415 0.912109 16.4775C0.912109 15.6865 1.00488 14.9053 1.19043 14.1338C1.37598 13.3623 1.6543 12.6738 2.02539 12.0684C2.39648 11.4531 2.85547 10.9551 3.40234 10.5742C3.94922 10.1934 4.58887 10.0029 5.32129 10.0029C5.89746 10.0029 6.43457 10.1201 6.93262 10.3545C7.44043 10.5889 7.86523 10.9307 8.20703 11.3799V11.2041C8.20703 11.0186 8.26074 10.8525 8.36816 10.7061C8.48535 10.5498 8.62695 10.4229 8.79297 10.3252C8.96875 10.2178 9.14941 10.1396 9.33496 10.0908C9.53027 10.0322 9.70117 10.0029 9.84766 10.0029C10.0137 10.0029 10.1309 10.0273 10.1992 10.0762C10.2676 10.1152 10.3018 10.1885 10.3018 10.2959C10.3018 10.4521 10.2822 10.8037 10.2432 11.3506C10.2041 11.8975 10.1846 12.6982 10.1846 13.7529V20.1104C10.4287 19.8076 10.6875 19.4707 10.9609 19.0996C11.2344 18.7285 11.5078 18.3428 11.7812 17.9424C12.0547 17.5322 12.3184 17.1123 12.5723 16.6826C12.8359 16.2529 13.0801 15.8232 13.3047 15.3936L13.4512 15.1006L14.0518 15.5547L13.9053 15.8477C13.6709 16.3164 13.3975 16.8047 13.085 17.3125C12.7822 17.8105 12.46 18.3037 12.1182 18.792C11.7861 19.2705 11.4492 19.7344 11.1074 20.1836C10.7754 20.623 10.4678 21.0186 10.1846 21.3701V24.5488C10.1846 25.4473 10.1016 26.209 9.93555 26.834C9.7793 27.4688 9.55957 27.9814 9.27637 28.3721C9.00293 28.7725 8.6709 29.0605 8.28027 29.2363C7.89941 29.4121 7.48438 29.5 7.03516 29.5C6.47852 29.5 6.01465 29.3242 5.64355 28.9727C5.27246 28.6309 5.08691 28.1572 5.08691 27.5518ZM5.35059 20.5059C5.65332 20.5059 5.95117 20.418 6.24414 20.2422C6.54688 20.0664 6.8252 19.8418 7.0791 19.5684C7.33301 19.2949 7.55762 18.9971 7.75293 18.6748C7.95801 18.3428 8.10938 18.0205 8.20703 17.708V13.5771C8.20703 13.1377 8.13867 12.7422 8.00195 12.3906C7.86523 12.0293 7.68457 11.7266 7.45996 11.4824C7.23535 11.2285 6.97656 11.0332 6.68359 10.8965C6.40039 10.7598 6.10742 10.6914 5.80469 10.6914C5.33594 10.6914 4.92578 10.833 4.57422 11.1162C4.22266 11.3896 3.92969 11.7559 3.69531 12.2148C3.46094 12.6641 3.28516 13.1816 3.16797 13.7676C3.06055 14.3535 3.00684 14.9492 3.00684 15.5547C3.00684 16.3066 3.05078 16.9854 3.13867 17.5908C3.23633 18.1963 3.38281 18.7188 3.57812 19.1582C3.77344 19.5879 4.01758 19.9199 4.31055 20.1543C4.60352 20.3887 4.9502 20.5059 5.35059 20.5059ZM6.87402 28.6064C7.03027 28.6064 7.18652 28.5723 7.34277 28.5039C7.50879 28.4453 7.65527 28.3037 7.78223 28.0791C7.90918 27.8545 8.01172 27.5225 8.08984 27.083C8.16797 26.6436 8.20703 26.0479 8.20703 25.2959V23.1133C7.5332 23.9238 6.98145 24.6904 6.55176 25.4131C6.13184 26.1455 5.92188 26.8291 5.92188 27.4639C5.92188 27.7666 6.00488 28.0303 6.1709 28.2549C6.33691 28.4893 6.57129 28.6064 6.87402 28.6064ZM17.7725 20.3447C18.1143 20.3447 18.4609 20.2568 18.8125 20.0811C19.1738 19.9053 19.5352 19.6318 19.8965 19.2607C20.2676 18.8896 20.6484 18.4111 21.0391 17.8252C21.4297 17.2295 21.8301 16.5215 22.2402 15.7012L22.3867 15.3936L22.9873 15.8477L22.8408 16.1553C22.3135 17.2002 21.7861 18.0938 21.2588 18.8359C20.7412 19.5781 20.2285 20.1836 19.7207 20.6523C19.2227 21.1211 18.7295 21.4629 18.2412 21.6777C17.7529 21.8926 17.2842 22 16.835 22C16.2002 22 15.6338 21.8682 15.1357 21.6045C14.6377 21.3408 14.2178 20.9844 13.876 20.5352C13.5342 20.0762 13.2754 19.5488 13.0996 18.9531C12.9141 18.3477 12.8213 17.7129 12.8213 17.0488C12.8213 15.9941 12.9678 15.0371 13.2607 14.1777C13.5439 13.3086 13.9248 12.5664 14.4033 11.9512C14.8916 11.3359 15.4434 10.8574 16.0586 10.5156C16.6738 10.1738 17.3135 10.0029 17.9775 10.0029C18.6514 10.0029 19.1641 10.1738 19.5156 10.5156C19.877 10.8574 20.0576 11.2871 20.0576 11.8047C20.0576 12.3027 19.916 12.7715 19.6328 13.2109C19.3496 13.6406 18.9639 14.0654 18.4756 14.4854C17.9971 14.8955 17.4404 15.3057 16.8057 15.7158C16.1709 16.1162 15.502 16.5312 14.7988 16.9609C14.8672 17.4688 14.9844 17.9326 15.1504 18.3525C15.3164 18.7627 15.5264 19.1191 15.7803 19.4219C16.0342 19.7148 16.3271 19.9443 16.6592 20.1104C16.9912 20.2666 17.3623 20.3447 17.7725 20.3447ZM18.2266 12.2441C18.2266 11.8535 18.1191 11.5459 17.9043 11.3213C17.6992 11.0967 17.4453 10.9844 17.1426 10.9844C16.8887 10.9844 16.6201 11.0771 16.3369 11.2627C16.0537 11.4385 15.7949 11.7266 15.5605 12.127C15.3262 12.5176 15.1309 13.0205 14.9746 13.6357C14.8184 14.251 14.7402 14.998 14.7402 15.877V16.2139C15.0723 16.0381 15.4385 15.8086 15.8389 15.5254C16.249 15.2324 16.6299 14.9102 16.9814 14.5586C17.333 14.207 17.626 13.8359 17.8604 13.4453C18.1045 13.0449 18.2266 12.6445 18.2266 12.2441ZM22.3281 17.1953C22.3281 16.1602 22.3672 15.1201 22.4453 14.0752C22.5234 13.0303 22.626 11.9707 22.7529 10.8965H21.4199L21.5811 10.0029H22.8701C23.0068 9.00684 23.1436 8.01074 23.2803 7.01465C23.4268 6.00879 23.5586 5.00293 23.6758 3.99707H25.1699C25.1504 4.21191 25.1211 4.52441 25.082 4.93457C25.0527 5.33496 25.0137 5.80371 24.9648 6.34082C24.9258 6.86816 24.8867 7.44922 24.8477 8.08398C24.8086 8.70898 24.7695 9.34863 24.7305 10.0029H27.5723L27.4258 10.8965H24.6719C24.6328 11.4531 24.5986 12 24.5693 12.5371C24.54 13.0742 24.5107 13.5869 24.4814 14.0752C24.4619 14.5537 24.4473 14.998 24.4375 15.4082C24.4277 15.8086 24.4229 16.1553 24.4229 16.4482C24.4229 17.1904 24.4424 17.8105 24.4814 18.3086C24.5303 18.8066 24.5986 19.207 24.6865 19.5098C24.7842 19.8125 24.9014 20.0273 25.0381 20.1543C25.1846 20.2812 25.3506 20.3447 25.5361 20.3447C25.7803 20.3447 26.0488 20.2227 26.3418 19.9785C26.6445 19.7246 26.957 19.3877 27.2793 18.9678C27.6016 18.5479 27.9287 18.0596 28.2607 17.5029C28.5928 16.9365 28.915 16.3359 29.2275 15.7012L29.374 15.3936L29.9746 15.8477L29.8281 16.1553C29.3789 17.0635 28.9297 17.8789 28.4805 18.6016C28.041 19.3242 27.6064 19.9395 27.1768 20.4473C26.7471 20.9453 26.3271 21.3311 25.917 21.6045C25.5068 21.8682 25.1113 22 24.7305 22C24.3496 22 24.0078 21.9121 23.7051 21.7363C23.4121 21.5605 23.1631 21.2822 22.958 20.9014C22.7529 20.5107 22.5967 20.0127 22.4893 19.4072C22.3818 18.8018 22.3281 18.0645 22.3281 17.1953ZM34.1641 11.043C33.8809 11.043 33.6074 11.1455 33.3438 11.3506C33.0898 11.5459 32.8457 11.8193 32.6113 12.1709C32.377 12.5127 32.1475 12.918 31.9229 13.3867C31.708 13.8457 31.4932 14.3389 31.2783 14.8662V15.042C31.249 15.9014 31.2197 16.8145 31.1904 17.7812C31.1709 18.748 31.1611 19.8027 31.1611 20.9453C31.1611 21.1406 31.0928 21.3066 30.9561 21.4434C30.8291 21.5703 30.6777 21.6777 30.502 21.7656C30.3262 21.8438 30.1455 21.9023 29.96 21.9414C29.7744 21.9805 29.623 22 29.5059 22C29.3594 22 29.2227 21.9561 29.0957 21.8682C28.9688 21.7803 28.9053 21.585 28.9053 21.2822C28.9053 21.1357 28.9199 20.9551 28.9492 20.7402C28.9785 20.5156 29.0176 20.2764 29.0664 20.0225C29.1055 19.7686 29.1543 19.5098 29.2129 19.2461C29.2617 18.9727 29.3105 18.7188 29.3594 18.4844C29.3594 17.6543 29.3594 16.9072 29.3594 16.2432C29.3496 15.5791 29.3447 14.9883 29.3447 14.4707C29.3447 13.9531 29.3447 13.499 29.3447 13.1084C29.335 12.7178 29.3301 12.3809 29.3301 12.0977C29.3301 11.6289 29.3398 11.2871 29.3594 11.0723C29.3691 10.8477 29.3887 10.6914 29.418 10.6035C29.4668 10.4668 29.5547 10.3594 29.6816 10.2812C29.8184 10.2031 29.96 10.1445 30.1064 10.1055C30.2529 10.0566 30.3994 10.0273 30.5459 10.0176C30.6924 10.0078 30.8047 10.0029 30.8828 10.0029C31.0684 10.0029 31.1904 10.0566 31.249 10.1641C31.3076 10.2715 31.3369 10.4375 31.3369 10.6621C31.3369 11.1699 31.3369 11.6289 31.3369 12.0391C31.3369 12.4492 31.3271 12.8594 31.3076 13.2695C31.4932 12.8301 31.708 12.415 31.9521 12.0244C32.2061 11.624 32.4844 11.2773 32.7871 10.9844C33.0898 10.6816 33.4072 10.4424 33.7393 10.2666C34.0811 10.0908 34.4326 10.0029 34.7939 10.0029C35.2334 10.0029 35.5947 10.0957 35.8779 10.2812C36.1709 10.457 36.4004 10.7061 36.5664 11.0283C36.7422 11.3506 36.8691 11.7314 36.9473 12.1709C37.0352 12.6006 37.0938 13.0693 37.123 13.5771C37.3965 13.0791 37.6895 12.6152 38.002 12.1855C38.3242 11.7461 38.6611 11.3652 39.0127 11.043C39.374 10.7207 39.75 10.4668 40.1406 10.2812C40.541 10.0957 40.9561 10.0029 41.3857 10.0029C42.1279 10.0029 42.6699 10.2373 43.0117 10.7061C43.3535 11.165 43.5244 11.79 43.5244 12.5811C43.5244 13.0791 43.4854 13.6357 43.4072 14.251C43.3291 14.8662 43.2461 15.4912 43.1582 16.126C43.0703 16.751 42.9873 17.3662 42.9092 17.9717C42.8311 18.5771 42.792 19.1289 42.792 19.627C42.792 20.2324 42.9434 20.5352 43.2461 20.5352C43.4023 20.5352 43.5732 20.4424 43.7588 20.2568C43.9443 20.0615 44.1543 19.7686 44.3887 19.3779C44.6328 18.9775 44.9111 18.4746 45.2236 17.8691C45.5459 17.2637 45.917 16.541 46.3369 15.7012L46.4834 15.3936L47.084 15.8477L46.9375 16.1553C46.3613 17.3076 45.8682 18.2598 45.458 19.0117C45.0576 19.7637 44.6963 20.3643 44.374 20.8135C44.0518 21.2529 43.7441 21.5605 43.4512 21.7363C43.168 21.9121 42.8506 22 42.499 22C42.2939 22 42.0938 21.9707 41.8984 21.9121C41.7031 21.8535 41.5322 21.751 41.3857 21.6045C41.2393 21.458 41.1221 21.2627 41.0342 21.0186C40.9463 20.7646 40.9023 20.4424 40.9023 20.0518C40.9023 19.4658 40.9414 18.8066 41.0195 18.0742C41.0977 17.3418 41.1855 16.6094 41.2832 15.877C41.3809 15.1445 41.4688 14.4561 41.5469 13.8115C41.625 13.1572 41.6641 12.625 41.6641 12.2148C41.6641 11.8535 41.5859 11.5654 41.4297 11.3506C41.2734 11.126 41.0391 11.0137 40.7266 11.0137C40.4141 11.0137 40.0869 11.1357 39.7451 11.3799C39.4131 11.624 39.0859 11.9414 38.7637 12.332C38.4512 12.7129 38.1533 13.1426 37.8701 13.6211C37.5967 14.0996 37.3574 14.5732 37.1523 15.042C37.1523 16.0674 37.1426 16.9658 37.123 17.7373C37.1035 18.499 37.0742 19.1436 37.0352 19.6709C37.0059 20.1982 36.9619 20.6182 36.9033 20.9307C36.8447 21.2334 36.7812 21.4385 36.7129 21.5459C36.6641 21.6143 36.5811 21.6777 36.4639 21.7363C36.3467 21.7949 36.2148 21.8438 36.0684 21.8828C35.9316 21.9219 35.7949 21.9512 35.6582 21.9707C35.5312 21.9902 35.4336 22 35.3652 22C35.209 22 35.0723 21.9561 34.9551 21.8682C34.8477 21.7705 34.7939 21.585 34.7939 21.3115C34.7939 21.1846 34.8037 21.0137 34.8232 20.7988C34.8525 20.584 34.8867 20.3447 34.9258 20.0811C34.9648 19.8174 35.0088 19.5342 35.0576 19.2314C35.1064 18.9287 35.1553 18.6211 35.2041 18.3086C35.2139 18.0156 35.2236 17.6885 35.2334 17.3271C35.2432 16.9658 35.2529 16.6094 35.2627 16.2578C35.2725 15.8965 35.2773 15.5547 35.2773 15.2324C35.2871 14.9004 35.292 14.6172 35.292 14.3828C35.292 13.8848 35.2773 13.4307 35.248 13.0205C35.2188 12.6104 35.1602 12.2588 35.0723 11.9658C34.9941 11.6729 34.8818 11.4482 34.7354 11.292C34.5889 11.126 34.3984 11.043 34.1641 11.043ZM58.7734 15.8477L58.6123 16.1553C58.2803 16.8193 57.8359 17.3516 57.2793 17.752C56.7324 18.1426 56.1367 18.3965 55.4922 18.5137C55.3164 19.0117 55.0869 19.4756 54.8037 19.9053C54.5303 20.3252 54.2129 20.6914 53.8516 21.0039C53.5 21.3164 53.0996 21.5605 52.6504 21.7363C52.2109 21.9121 51.7324 22 51.2148 22C50.4629 22 49.7842 21.8438 49.1787 21.5312C48.583 21.209 48.0752 20.7793 47.6553 20.2422C47.2354 19.6953 46.9131 19.0605 46.6885 18.3379C46.4639 17.6055 46.3516 16.8242 46.3516 15.9941C46.3516 15.2715 46.4346 14.6172 46.6006 14.0312C46.7666 13.4355 46.9766 12.9082 47.2305 12.4492C47.4844 11.9805 47.7676 11.5752 48.0801 11.2334C48.3926 10.8818 48.7002 10.5938 49.0029 10.3691C49.3057 10.1445 49.5791 9.97852 49.8232 9.87109C50.0771 9.75391 50.2676 9.69531 50.3945 9.69531L50.585 10.208C50.1846 10.501 49.8281 10.9111 49.5156 11.4385C49.2422 11.8877 48.9932 12.4834 48.7686 13.2256C48.5537 13.9678 48.4463 14.8906 48.4463 15.9941C48.4463 16.668 48.5098 17.3223 48.6367 17.957C48.7637 18.5918 48.9492 19.1533 49.1934 19.6416C49.4375 20.1299 49.7354 20.5205 50.0869 20.8135C50.4482 21.1064 50.8535 21.2529 51.3027 21.2529C51.918 21.2529 52.4258 21.0088 52.8262 20.5205C53.2363 20.0225 53.5391 19.3438 53.7344 18.4844C53.2266 18.377 52.7432 18.1768 52.2842 17.8838C51.8252 17.5908 51.4199 17.2295 51.0684 16.7998C50.7168 16.3604 50.4336 15.8574 50.2188 15.291C50.0137 14.7246 49.9111 14.1094 49.9111 13.4453C49.9111 12.8984 49.9795 12.4199 50.1162 12.0098C50.2627 11.5898 50.4531 11.2432 50.6875 10.9697C50.9219 10.6865 51.1904 10.4766 51.4932 10.3398C51.8057 10.1934 52.1328 10.1201 52.4746 10.1201C52.875 10.1201 53.2852 10.2373 53.7051 10.4717C54.125 10.6963 54.5059 11.0381 54.8477 11.4971C55.1895 11.9463 55.4678 12.5127 55.6826 13.1963C55.8975 13.8799 56.0049 14.6758 56.0049 15.584C56.0049 15.9258 55.9854 16.2627 55.9463 16.5947C55.9072 16.9268 55.8486 17.249 55.7705 17.5615C56.2393 17.4248 56.6641 17.2051 57.0449 16.9023C57.4355 16.5996 57.7578 16.1992 58.0117 15.7012L58.1729 15.3936L58.7734 15.8477ZM50.8779 13.3281C50.8779 13.9043 50.9561 14.4365 51.1123 14.9248C51.2783 15.4033 51.498 15.8281 51.7715 16.1992C52.0449 16.5605 52.3623 16.8633 52.7236 17.1074C53.085 17.3516 53.4707 17.5225 53.8809 17.6201C53.9297 17.3467 53.959 17.0635 53.9688 16.7705C53.9883 16.4678 53.998 16.1602 53.998 15.8477C53.998 15.1543 53.9443 14.5293 53.8369 13.9727C53.7295 13.4062 53.5879 12.9277 53.4121 12.5371C53.2363 12.1367 53.0312 11.8291 52.7969 11.6143C52.5625 11.3994 52.3232 11.292 52.0791 11.292C51.7471 11.292 51.4639 11.4727 51.2295 11.834C50.9951 12.1855 50.8779 12.6836 50.8779 13.3281ZM63.1387 13.6357C63.2559 13.4502 63.3535 13.2207 63.4316 12.9473C63.5195 12.6738 63.5635 12.4004 63.5635 12.127C63.5635 11.7949 63.4805 11.5068 63.3145 11.2627C63.1484 11.0186 62.8506 10.8965 62.4209 10.8965C62.1377 10.8965 61.8496 10.999 61.5566 11.2041C61.2637 11.4092 60.9902 11.7168 60.7363 12.127C60.4922 12.5371 60.292 13.0547 60.1357 13.6797C59.9795 14.3047 59.9014 15.0371 59.9014 15.877C59.9014 16.541 59.9697 17.1465 60.1064 17.6934C60.2432 18.2402 60.4434 18.709 60.707 19.0996C60.9707 19.4902 61.2881 19.7979 61.6592 20.0225C62.04 20.2373 62.4648 20.3447 62.9336 20.3447C63.2754 20.3447 63.6221 20.2568 63.9736 20.0811C64.335 19.9053 64.6963 19.6318 65.0576 19.2607C65.4287 18.8896 65.8096 18.4111 66.2002 17.8252C66.5908 17.2295 66.9912 16.5215 67.4014 15.7012L67.5479 15.3936L68.1484 15.8477L68.002 16.1553C67.4746 17.2002 66.9473 18.0938 66.4199 18.8359C65.9023 19.5781 65.3896 20.1836 64.8818 20.6523C64.374 21.1211 63.876 21.4629 63.3877 21.6777C62.9092 21.8926 62.4453 22 61.9961 22C61.3613 22 60.7949 21.8682 60.2969 21.6045C59.7988 21.3408 59.3789 20.9844 59.0371 20.5352C58.6953 20.0762 58.4316 19.5488 58.2461 18.9531C58.0703 18.3477 57.9824 17.7129 57.9824 17.0488C57.9824 15.9941 58.124 15.0371 58.4072 14.1777C58.7002 13.3086 59.0762 12.5664 59.5352 11.9512C59.9941 11.3359 60.5117 10.8574 61.0879 10.5156C61.6641 10.1738 62.2451 10.0029 62.8311 10.0029C63.2803 10.0029 63.6562 10.0664 63.959 10.1934C64.2617 10.3203 64.5059 10.4814 64.6914 10.6768C64.877 10.8721 65.0088 11.082 65.0869 11.3066C65.165 11.5312 65.2041 11.7461 65.2041 11.9512C65.2041 12.1562 65.1602 12.3711 65.0723 12.5957C64.9844 12.8105 64.8525 13.0156 64.6768 13.2109C64.5107 13.3965 64.3105 13.5674 64.0762 13.7236C63.8418 13.8701 63.5781 13.9775 63.2852 14.0459L63.1387 13.6357ZM79.9551 15.8477L79.8086 16.1553C79.3984 16.9756 79.0078 17.7422 78.6367 18.4551C78.2656 19.168 77.8945 19.7881 77.5234 20.3154C77.1523 20.8428 76.7715 21.2578 76.3809 21.5605C76 21.8535 75.5898 22 75.1504 22C74.7109 22 74.2812 21.8828 73.8613 21.6484C73.4414 21.4141 73.0215 21.0869 72.6016 20.667C72.1914 20.2471 71.7764 19.7588 71.3564 19.2021C70.9463 18.6357 70.5215 18.0205 70.082 17.3564L69.5693 17.4443C69.5498 18.3037 69.5205 19.0801 69.4814 19.7734C69.4424 20.457 69.3936 21.0186 69.335 21.458C69.3057 21.6533 69.2227 21.7949 69.0859 21.8828C68.959 21.9609 68.7832 22 68.5586 22C68.2949 22 68.0752 21.9658 67.8994 21.8975C67.7236 21.8291 67.5869 21.7461 67.4893 21.6484C67.3818 21.541 67.3086 21.4287 67.2695 21.3115C67.2207 21.1846 67.1963 21.0625 67.1963 20.9453C67.1963 20.3203 67.2988 19.5439 67.5039 18.6162V11.043C67.5039 9.16797 67.6016 7.54688 67.7969 6.17969C67.9922 4.80273 68.2559 3.66504 68.5879 2.7666C68.9199 1.8584 69.3057 1.18945 69.7451 0.759766C70.1943 0.320312 70.668 0.100586 71.166 0.100586C71.7031 0.100586 72.084 0.276367 72.3086 0.62793C72.543 0.969727 72.6602 1.44336 72.6602 2.04883C72.6602 2.57617 72.582 3.25488 72.4258 4.08496C72.2695 4.90527 72.0498 5.80859 71.7666 6.79492C71.4932 7.78125 71.1709 8.81152 70.7998 9.88574C70.4287 10.9502 70.0283 11.9902 69.5986 13.0059V13.3281C69.8721 12.8887 70.1895 12.4688 70.5508 12.0684C70.9219 11.668 71.3174 11.3164 71.7373 11.0137C72.1572 10.7012 72.5869 10.457 73.0264 10.2812C73.4756 10.0957 73.915 10.0029 74.3447 10.0029C74.7256 10.0029 75.0723 10.0566 75.3848 10.1641C75.707 10.2715 75.9854 10.4277 76.2197 10.6328C76.4541 10.8379 76.6348 11.0967 76.7617 11.4092C76.8887 11.7119 76.9521 12.0635 76.9521 12.4639C76.9521 12.874 76.8594 13.2842 76.6738 13.6943C76.498 14.1045 76.2148 14.5 75.8242 14.8809C75.4434 15.2617 74.9502 15.623 74.3447 15.9648C73.7393 16.2969 73.0068 16.5898 72.1475 16.8438C72.2061 16.9316 72.3037 17.0781 72.4404 17.2832C72.5771 17.4883 72.7383 17.7227 72.9238 17.9863C73.1191 18.2402 73.3291 18.5088 73.5537 18.792C73.7783 19.0654 74.0078 19.3193 74.2422 19.5537C74.4863 19.7783 74.7256 19.9688 74.96 20.125C75.1943 20.2715 75.4092 20.3447 75.6045 20.3447C75.8682 20.3447 76.1367 20.2373 76.4102 20.0225C76.6836 19.7979 76.9668 19.4854 77.2598 19.085C77.5625 18.6748 77.875 18.1865 78.1973 17.6201C78.5195 17.0439 78.8564 16.4043 79.208 15.7012L79.3545 15.3936L79.9551 15.8477ZM69.5986 14.5879C69.5986 14.8125 69.5938 15.0127 69.584 15.1885C69.584 15.3545 69.584 15.5205 69.584 15.6865C69.584 15.8428 69.5791 16.0039 69.5693 16.1699C69.5693 16.3359 69.5693 16.5215 69.5693 16.7266C70.5654 16.5801 71.4053 16.3848 72.0889 16.1406C72.7822 15.8965 73.3438 15.6133 73.7734 15.291C74.2031 14.9688 74.5156 14.6172 74.7109 14.2363C74.9062 13.8457 75.0039 13.4355 75.0039 13.0059C75.0039 12.7812 74.9648 12.5664 74.8867 12.3613C74.8184 12.1465 74.7158 11.9609 74.5791 11.8047C74.4424 11.6387 74.2715 11.5068 74.0664 11.4092C73.8711 11.3115 73.6514 11.2627 73.4072 11.2627C73.0654 11.2627 72.7188 11.3555 72.3672 11.541C72.0254 11.7168 71.6836 11.9561 71.3418 12.2588C71.0098 12.5615 70.6924 12.918 70.3896 13.3281C70.0967 13.7285 69.833 14.1484 69.5986 14.5879ZM70.8877 0.847656C70.6826 0.847656 70.502 1.04785 70.3457 1.44824C70.1992 1.84863 70.0723 2.47363 69.9648 3.32324C69.8574 4.16309 69.7695 5.2373 69.7012 6.5459C69.6328 7.84473 69.5791 9.39746 69.54 11.2041C69.9502 10.1201 70.2822 9.10449 70.5361 8.15723C70.79 7.2002 70.9854 6.34082 71.1221 5.5791C71.2686 4.80762 71.3662 4.13867 71.415 3.57227C71.4639 2.99609 71.4883 2.53711 71.4883 2.19531C71.4883 1.67773 71.4395 1.32617 71.3418 1.14062C71.2539 0.945313 71.1025 0.847656 70.8877 0.847656ZM80.5703 20.6523C80.5703 20.4668 80.6045 20.291 80.6729 20.125C80.7412 19.959 80.834 19.8174 80.9512 19.7002C81.0781 19.5732 81.2246 19.4756 81.3906 19.4072C81.5566 19.3389 81.7324 19.3047 81.918 19.3047C82.1035 19.3047 82.2793 19.3389 82.4453 19.4072C82.6113 19.4756 82.7529 19.5732 82.8701 19.7002C82.9971 19.8174 83.0947 19.959 83.1631 20.125C83.2314 20.291 83.2656 20.4668 83.2656 20.6523C83.2656 20.8379 83.2314 21.0137 83.1631 21.1797C83.0947 21.3457 82.9971 21.4922 82.8701 21.6191C82.7529 21.7363 82.6113 21.8291 82.4453 21.8975C82.2793 21.9658 82.1035 22 81.918 22C81.7324 22 81.5566 21.9658 81.3906 21.8975C81.2246 21.8291 81.0781 21.7363 80.9512 21.6191C80.834 21.4922 80.7412 21.3457 80.6729 21.1797C80.6045 21.0137 80.5703 20.8379 80.5703 20.6523ZM88.0557 22C87.46 22 86.9424 21.873 86.5029 21.6191C86.0732 21.3652 85.7168 21.0234 85.4336 20.5938C85.1504 20.1543 84.9404 19.6514 84.8037 19.085C84.667 18.5186 84.5986 17.918 84.5986 17.2832C84.5986 16.7266 84.6523 16.1602 84.7598 15.584C84.8672 15.0078 85.0186 14.4512 85.2139 13.9141C85.4189 13.3672 85.6729 12.8594 85.9756 12.3906C86.2783 11.9121 86.625 11.4971 87.0156 11.1455C87.4062 10.7939 87.8408 10.5156 88.3193 10.3105C88.8076 10.1055 89.3301 10.0029 89.8867 10.0029C90.5215 10.0029 91.0586 10.1445 91.498 10.4277C91.9473 10.7109 92.3086 11.0576 92.582 11.4678C92.5918 9.62207 92.6846 7.99121 92.8604 6.5752C93.0361 5.15918 93.2803 3.97266 93.5928 3.01562C93.915 2.05859 94.2959 1.33594 94.7354 0.847656C95.1748 0.349609 95.6582 0.100586 96.1855 0.100586C96.3711 0.100586 96.5371 0.125 96.6836 0.173828C96.8398 0.212891 96.9668 0.291016 97.0645 0.408203C97.1719 0.525391 97.25 0.686523 97.2988 0.891602C97.3574 1.08691 97.3867 1.34082 97.3867 1.65332C97.3867 2.29785 97.3232 3.04004 97.1963 3.87988C97.0693 4.70996 96.8887 5.61816 96.6543 6.60449C96.4199 7.58105 96.1318 8.62598 95.79 9.73926C95.458 10.8428 95.0869 11.9902 94.6768 13.1816C94.6865 14.2266 94.7012 15.1299 94.7207 15.8916C94.7402 16.6533 94.7646 17.2979 94.7939 17.8252C94.833 18.3525 94.877 18.7822 94.9258 19.1143C94.9844 19.4463 95.0479 19.7051 95.1162 19.8906C95.1943 20.0664 95.2822 20.1885 95.3799 20.2568C95.4873 20.3154 95.6045 20.3447 95.7314 20.3447C95.9561 20.3447 96.1807 20.2471 96.4053 20.0518C96.6396 19.8467 96.8887 19.5488 97.1523 19.1582C97.416 18.7578 97.6992 18.2695 98.002 17.6934C98.3145 17.1172 98.6562 16.4531 99.0273 15.7012L99.1885 15.3936L99.7891 15.8477L99.6279 16.1553C99.0615 17.2979 98.5635 18.2451 98.1338 18.9971C97.7041 19.7393 97.3086 20.335 96.9473 20.7842C96.5957 21.2334 96.2588 21.5508 95.9365 21.7363C95.6143 21.9121 95.2773 22 94.9258 22C94.584 22 94.2861 21.917 94.0322 21.751C93.7881 21.5752 93.5781 21.3066 93.4023 20.9453C93.2266 20.5742 93.085 20.1055 92.9775 19.5391C92.8701 18.9629 92.7871 18.2744 92.7285 17.4736C92.3867 18.1572 92.0352 18.7773 91.6738 19.334C91.3125 19.8906 90.9365 20.3691 90.5459 20.7695C90.165 21.1602 89.7646 21.4629 89.3447 21.6777C88.9248 21.8926 88.4951 22 88.0557 22ZM90.1797 10.75C89.6426 10.75 89.1738 10.916 88.7734 11.248C88.373 11.5703 88.041 11.9951 87.7773 12.5225C87.5137 13.04 87.3184 13.626 87.1914 14.2803C87.0645 14.9346 87.001 15.5889 87.001 16.2432C87.001 16.7803 87.04 17.2979 87.1182 17.7959C87.2061 18.2842 87.333 18.7188 87.499 19.0996C87.6748 19.4805 87.8848 19.7832 88.1289 20.0078C88.373 20.2324 88.6562 20.3447 88.9785 20.3447C89.291 20.3447 89.5938 20.2666 89.8867 20.1104C90.1895 19.9541 90.4873 19.7051 90.7803 19.3633C91.0732 19.0117 91.3711 18.5625 91.6738 18.0156C91.9766 17.459 92.2988 16.7852 92.6406 15.9941C92.6211 15.5254 92.6064 15.0273 92.5967 14.5C92.5869 13.9629 92.582 13.3916 92.582 12.7861C92.3672 12.1514 92.04 11.6533 91.6006 11.292C91.1709 10.9307 90.6973 10.75 90.1797 10.75ZM96.332 2.19531C96.332 1.74609 96.2783 1.43359 96.1709 1.25781C96.0732 1.08203 95.9561 0.994141 95.8193 0.994141C95.585 0.994141 95.3945 1.22363 95.248 1.68262C95.1016 2.13184 94.9844 2.74219 94.8965 3.51367C94.8184 4.28516 94.7598 5.17871 94.7207 6.19434C94.6914 7.20996 94.6768 8.2793 94.6768 9.40234V11.0137C94.9795 10.0273 95.2383 9.13867 95.4531 8.34766C95.668 7.55664 95.8389 6.81934 95.9658 6.13574C96.0928 5.45215 96.1855 4.79297 96.2441 4.1582C96.3027 3.52344 96.332 2.86914 96.332 2.19531ZM103.524 20.3447C103.866 20.3447 104.213 20.2568 104.564 20.0811C104.926 19.9053 105.287 19.6318 105.648 19.2607C106.02 18.8896 106.4 18.4111 106.791 17.8252C107.182 17.2295 107.582 16.5215 107.992 15.7012L108.139 15.3936L108.739 15.8477L108.593 16.1553C108.065 17.2002 107.538 18.0938 107.011 18.8359C106.493 19.5781 105.98 20.1836 105.473 20.6523C104.975 21.1211 104.481 21.4629 103.993 21.6777C103.505 21.8926 103.036 22 102.587 22C101.952 22 101.386 21.8682 100.888 21.6045C100.39 21.3408 99.9697 20.9844 99.6279 20.5352C99.2861 20.0762 99.0273 19.5488 98.8516 18.9531C98.666 18.3477 98.5732 17.7129 98.5732 17.0488C98.5732 15.9941 98.7197 15.0371 99.0127 14.1777C99.2959 13.3086 99.6768 12.5664 100.155 11.9512C100.644 11.3359 101.195 10.8574 101.811 10.5156C102.426 10.1738 103.065 10.0029 103.729 10.0029C104.403 10.0029 104.916 10.1738 105.268 10.5156C105.629 10.8574 105.81 11.2871 105.81 11.8047C105.81 12.3027 105.668 12.7715 105.385 13.2109C105.102 13.6406 104.716 14.0654 104.228 14.4854C103.749 14.8955 103.192 15.3057 102.558 15.7158C101.923 16.1162 101.254 16.5312 100.551 16.9609C100.619 17.4688 100.736 17.9326 100.902 18.3525C101.068 18.7627 101.278 19.1191 101.532 19.4219C101.786 19.7148 102.079 19.9443 102.411 20.1104C102.743 20.2666 103.114 20.3447 103.524 20.3447ZM103.979 12.2441C103.979 11.8535 103.871 11.5459 103.656 11.3213C103.451 11.0967 103.197 10.9844 102.895 10.9844C102.641 10.9844 102.372 11.0771 102.089 11.2627C101.806 11.4385 101.547 11.7266 101.312 12.127C101.078 12.5176 100.883 13.0205 100.727 13.6357C100.57 14.251 100.492 14.998 100.492 15.877V16.2139C100.824 16.0381 101.19 15.8086 101.591 15.5254C102.001 15.2324 102.382 14.9102 102.733 14.5586C103.085 14.207 103.378 13.8359 103.612 13.4453C103.856 13.0449 103.979 12.6445 103.979 12.2441ZM110.6 10.8965C110.6 11.2773 110.565 11.7607 110.497 12.3467C110.438 12.9326 110.37 13.5869 110.292 14.3096C110.224 15.0225 110.155 15.7891 110.087 16.6094C110.028 17.4297 109.999 18.2646 109.999 19.1143C109.999 19.7979 110.111 20.2715 110.336 20.5352C110.561 20.7891 110.868 20.916 111.259 20.916C111.532 20.916 111.811 20.8428 112.094 20.6963C112.377 20.5498 112.646 20.3496 112.899 20.0957C113.163 19.8418 113.407 19.5391 113.632 19.1875C113.856 18.8359 114.057 18.4551 114.232 18.0449C113.676 17.7031 113.207 17.1465 112.826 16.375C112.445 15.5938 112.255 14.6074 112.255 13.416C112.255 12.8203 112.318 12.3174 112.445 11.9072C112.572 11.4873 112.738 11.1455 112.943 10.8818C113.158 10.6182 113.397 10.4277 113.661 10.3105C113.925 10.1836 114.193 10.1201 114.467 10.1201C114.711 10.1201 114.95 10.1689 115.185 10.2666C115.419 10.3643 115.624 10.5254 115.8 10.75C115.976 10.9648 116.117 11.2529 116.225 11.6143C116.332 11.9756 116.386 12.4199 116.386 12.9473C116.386 13.6113 116.303 14.3584 116.137 15.1885C115.98 16.0088 115.746 16.8291 115.434 17.6494C115.482 17.6494 115.531 17.6543 115.58 17.6641C115.629 17.6738 115.678 17.6787 115.727 17.6787C116.273 17.6787 116.737 17.5029 117.118 17.1514C117.509 16.79 117.855 16.3066 118.158 15.7012L118.305 15.3936L118.905 15.8477L118.759 16.1553C118.368 16.917 117.895 17.4883 117.338 17.8691C116.791 18.2402 116.225 18.4258 115.639 18.4258C115.551 18.4258 115.453 18.4209 115.346 18.4111C115.248 18.4014 115.175 18.3867 115.126 18.3672C114.901 18.8652 114.638 19.334 114.335 19.7734C114.032 20.2129 113.695 20.5986 113.324 20.9307C112.963 21.2529 112.562 21.5117 112.123 21.707C111.693 21.9023 111.234 22 110.746 22C110.346 22 109.975 21.9414 109.633 21.8242C109.291 21.6973 108.988 21.4727 108.725 21.1504C108.471 20.8184 108.271 20.374 108.124 19.8174C107.978 19.251 107.904 18.5283 107.904 17.6494C107.904 17.2588 107.914 16.8242 107.934 16.3457C107.953 15.8574 107.982 15.3643 108.021 14.8662C108.051 14.3682 108.09 13.8799 108.139 13.4014C108.178 12.9229 108.222 12.4883 108.271 12.0977C108.319 11.6973 108.368 11.3652 108.417 11.1016C108.466 10.8281 108.515 10.6523 108.563 10.5742C108.681 10.3594 108.876 10.2129 109.149 10.1348C109.423 10.0469 109.687 10.0029 109.94 10.0029C110.116 10.0029 110.268 10.0664 110.395 10.1934C110.531 10.3203 110.6 10.5547 110.6 10.8965ZM113.061 13.4746C113.061 14.4121 113.197 15.2031 113.471 15.8477C113.754 16.4824 114.105 16.9512 114.525 17.2539C114.74 16.6387 114.906 16.0039 115.023 15.3496C115.15 14.6855 115.214 14.0508 115.214 13.4453C115.214 13.0547 115.18 12.7275 115.111 12.4639C115.053 12.1904 114.975 11.9707 114.877 11.8047C114.779 11.6387 114.662 11.5215 114.525 11.4531C114.398 11.3848 114.271 11.3506 114.145 11.3506C114.008 11.3506 113.876 11.3896 113.749 11.4678C113.622 11.5361 113.505 11.6533 113.397 11.8193C113.3 11.9854 113.217 12.2051 113.148 12.4785C113.09 12.752 113.061 13.084 113.061 13.4746Z" fill="white"/>
</svg>
